<?xml version="1.0"?>
<svg xmlns="http://www.w3.org/2000/svg" xmlns:xlink="http://www.w3.org/1999/xlink" version="1.1" id="Capa_1" x="0px" y="0px" viewBox="0 0 512 512" style="enable-background:new 0 0 512 512;" xml:space="preserve" width="512px" height="512px"><g><g>
	<g>
		<path d="M256,0C155.948,0,74.551,81.397,74.551,181.449c0,59.887,29.374,115.595,78.677,149.532l18.493,46.515    c0.004,0.011,0.011,0.02,0.015,0.031c0.007,0.018,0.012,0.036,0.019,0.054l18.762,45.567v23.362c0,4.143,3.357,7.5,7.5,7.5h0.785    v33.924c0,13.271,10.796,24.066,24.066,24.066h66.266c13.27,0,24.065-10.796,24.065-24.066V454.01h0.784    c4.143,0,7.5-3.357,7.5-7.5v-23.364l18.763-45.565c0.006-0.016,0.01-0.031,0.017-0.047c0.005-0.013,0.013-0.025,0.019-0.038    l18.492-46.516c49.301-33.937,78.675-89.644,78.675-149.531C437.449,81.397,356.052,0,256,0z M189.89,382.225h58.611v31.938    H203.04L189.89,382.225z M298.199,487.934c0,4.999-4.066,9.066-9.065,9.066h-66.266c-4.999,0-9.066-4.067-9.066-9.066V454.01    h34.697v9.074c0,4.142,3.357,7.5,7.5,7.5s7.5-3.358,7.5-7.5v-9.074h34.7V487.934z M306.485,439.01h-0.784h-99.399h-0.785v-9.847    h50.446c0.013,0,0.026,0.002,0.039,0.002s0.026-0.002,0.039-0.002h50.444V439.01z M308.962,414.164h-45.46v-31.938h58.611    L308.962,414.164z M328.223,367.226H183.779l-13.367-33.623h171.177L328.223,367.226z M350.304,318.603H161.696    c-43.145-29.715-69.627-77.605-71.958-129.653h32.388c4.143,0,7.5-3.357,7.5-7.5s-3.357-7.5-7.5-7.5H89.728    C93.664,85.637,166.734,15,256,15s162.336,70.637,166.272,158.949H152.095c-4.143,0-7.5,3.357-7.5,7.5s3.357,7.5,7.5,7.5h270.167    C419.931,240.997,393.448,288.886,350.304,318.603z" data-original="#000000" class="active-path" data-old_color="#D7AD38" fill="#FF9300"/>
	</g>
</g><g>
	<g>
		<path d="M201.899,101.595l-23.428-23.428c-2.93-2.928-7.678-2.928-10.607,0l-23.428,23.428c-2.929,2.93-2.929,7.678,0,10.607    l23.428,23.428c1.464,1.464,3.384,2.196,5.303,2.196s3.839-0.732,5.304-2.196l23.428-23.428    C204.828,109.272,204.828,104.524,201.899,101.595z M173.167,119.719l-12.821-12.821l12.821-12.821l12.821,12.821L173.167,119.719    z" data-original="#000000" class="active-path" data-old_color="#D7AD38" fill="#FF9300"/>
	</g>
</g><g>
	<g>
		<path d="M367.176,101.595l-23.428-23.428c-2.93-2.928-7.678-2.928-10.608,0l-23.428,23.428c-2.929,2.93-2.929,7.678,0,10.607    l23.428,23.428c1.465,1.464,3.385,2.196,5.304,2.196s3.839-0.732,5.304-2.196l23.428-23.428    C370.105,109.272,370.105,104.524,367.176,101.595z M338.443,119.719l-12.821-12.821l12.821-12.821l12.821,12.821L338.443,119.719    z" data-original="#000000" class="active-path" data-old_color="#D7AD38" fill="#FF9300"/>
	</g>
</g><g>
	<g>
		<path d="M284.731,101.595l-23.428-23.428c-2.93-2.928-7.678-2.928-10.607,0l-23.428,23.428c-2.929,2.93-2.929,7.678,0,10.607    l23.427,23.428c1.465,1.464,3.385,2.196,5.304,2.196s3.839-0.732,5.304-2.196l23.428-23.428    C287.66,109.272,287.66,104.524,284.731,101.595z M255.999,119.719l-12.821-12.821l12.821-12.821l12.821,12.821L255.999,119.719z" data-original="#000000" class="active-path" data-old_color="#D7AD38" fill="#FF9300"/>
	</g>
</g></g> </svg>
